<svg width="43" height="45" viewBox="0 0 43 45" fill="none" xmlns="http://www.w3.org/2000/svg">
<path d="M32.941 3.14117V7.00438M9.76172 3.14117V7.00438" stroke="#008385" stroke-width="5.39713" stroke-linecap="round" stroke-linejoin="round"/>
<path d="M21.3427 24.3887H21.3601M21.3427 32.1151H21.3601M29.0605 24.3887H29.0778M13.625 24.3887H13.6423M13.625 32.1151H13.6423" stroke="#008385" stroke-width="5.39713" stroke-linecap="round" stroke-linejoin="round"/>
<path d="M4.93164 14.7307H37.7689" stroke="#008385" stroke-width="5.39713" stroke-linecap="round" stroke-linejoin="round"/>
<path d="M3 22.9271C3 14.5105 3 10.3022 5.4186 7.68754C7.83719 5.07285 11.7299 5.07285 19.5152 5.07285H23.1853C30.9706 5.07285 34.8633 5.07285 37.2819 7.68754C39.7005 10.3022 39.7005 14.5105 39.7005 22.9271V23.919C39.7005 32.3356 39.7005 36.5439 37.2819 39.1586C34.8633 41.7733 30.9706 41.7733 23.1853 41.7733H19.5152C11.7299 41.7733 7.83719 41.7733 5.4186 39.1586C3 36.5439 3 32.3356 3 23.919V22.9271Z" stroke="#008385" stroke-width="5.39713" stroke-linecap="round" stroke-linejoin="round"/>
<path d="M3.9668 14.7307H38.7357" stroke="#008385" stroke-width="5.39713" stroke-linecap="round" stroke-linejoin="round"/>
</svg>
