<svg width="66" height="66" viewBox="0 0 66 66" fill="none" xmlns="http://www.w3.org/2000/svg">
<path d="M20.6933 23.7747C24.8121 35.011 29.0762 39.4941 39.924 44.2692L35.2228 50.8716C22.7662 44.9079 16.5618 34.855 13.6397 27.0099L20.6933 23.7747Z" fill="#008385"/>
<path d="M24.148 8.26213C26.3504 8.25351 28.0251 10.0862 27.8749 12.1614C27.6387 15.427 27.8902 17.7832 28.5675 20.7037C28.9396 22.3079 28.0979 23.9372 26.7603 24.9867C24.9575 26.4012 23.5801 28.2036 22.4855 29.7552C20.9682 31.9057 15.7467 31.7512 14.592 29.4084C12.2188 24.5936 10.6105 15.7231 14.076 9.72996C14.6204 8.78859 15.7164 8.2951 16.8521 8.29066L24.148 8.26213Z" fill="#008385"/>
<path d="M57.5811 43.8919C57.8551 41.828 56.13 40.0376 53.9305 39.9288C50.4693 39.7576 48.0229 39.2384 45.0343 38.2522C43.3927 37.7104 41.5788 38.3036 40.3148 39.4314C38.611 40.9516 36.5508 42.0261 34.7882 42.8659C32.3451 44.0298 31.8796 48.9438 34.2034 50.3081C38.9792 53.1121 48.1104 55.6867 54.8269 53.1584C55.8819 52.7612 56.5325 51.793 56.6738 50.7287L57.5811 43.8919Z" fill="#008385"/>
</svg>
